# xmcd
#
# Track frame offsets:
#	182
#	13987
#	25205
#	37870
#	50320
#	61942
#	71387
#	81170
#	91262
#	103895
#	113295
#	122307
#	133765
#	144517
#	156425
#	170075
#	180957
#	190820
#	203027
#	214920
#
# Disc length: 3019 seconds
#
# Revision: 0
# Processed by: cddbd v1.4PL0 Copyright (c) Steve Scherf et al.
#
# Submitted via: MusicManager v6.1.1.0
#
DISCID=0b0bc914
DTITLE=George Jones - A Good Year For The Roses
DYEAR=1900
DGENRE=country
TTITLE0=A Good Year For The Roses
TTITLE1=Swinging Doors
TTITLE2=She's Just A Girl I Used To Know
TTITLE3=Let's Get Together
TTITLE4=The Bridge Washed Out
TTITLE5=The Race Is On
TTITLE6=Don't Rob Another Man's Castle
TTITLE7=Heartaches And Hangovers
TTITLE8=Don't Be Angry
TTITLE9=Living On Easy Street
TTITLE10=Love Bug
TTITLE11=Talk Back Tremblin' Lips
TTITLE12=Ragged But I'm Alright
TTITLE13=If You Want Tell On Me
TTITLE14=Come Sundown
TTITLE15=Why Baby Why
TTITLE16=The Honky Tonk Downstairs
TTITLE17=Late Getting Home
TTITLE18=From Here To The Door
TTITLE19=We Must Have Been Out Of Our Minds
EXTD=
EXTT0=
EXTT1=
EXTT2=
EXTT3=
EXTT4=
EXTT5=
EXTT6=
EXTT7=
EXTT8=
EXTT9=
EXTT10=
EXTT11=
EXTT12=
EXTT13=
EXTT14=
EXTT15=
EXTT16=
EXTT17=
EXTT18=
EXTT19=
PLAYORDER=
